

Release info:

General
Format                                   : Matroska
Format version                           : Version 2
File size                                : 701 MiB
Duration                                 : 2h 29mn
Overall bit rate                         : 654 Kbps

Video
ID                                       : 1
Format                                   : MPEG-4 Visual
Format profile                           : Advanced Simple@L5
Format settings, BVOP                    : Yes
Format settings, QPel                    : No
Format settings, GMC                     : No warppoints
Format settings, Matrix                  : Default (H.263)
Codec ID                                 : V_MS/VFW/FOURCC / XVID
Codec ID/Hint                            : XviD
Duration                                 : 2h 29mn
Bit rate                                 : 513 Kbps
Width                                    : 624 pixels
Height                                   : 256 pixels
Display aspect ratio                     : 2.40:1
Frame rate mode                          : Constant
Frame rate                               : 23.976 fps
Color space                              : YUV
Chroma subsampling                       : 4:2:0
Bit depth                                : 8 bits
Scan type                                : Progressive
Compression mode                         : Lossy
Bits/(Pixel*Frame)                       : 0.134
Stream size                              : 550 MiB (78%)
Language                                 : English
Default                                  : Yes
Forced                                   : No

Audio
ID                                       : 2
Format                                   : MPEG Audio
Format version                           : Version 1
Format profile                           : Layer 3
Mode                                     : Joint stereo
Muxing mode                              : Header stripping
Codec ID                                 : A_MPEG/L3
Codec ID/Hint                            : MP3
Duration                                 : 2h 29mn
Bit rate mode                            : Constant
Bit rate                                 : 128 Kbps
Channel(s)                               : 2 channels
Sampling rate                            : 48.0 KHz
Compression mode                         : Lossy
Stream size                              : 137 MiB (20%)
Language                                 : English
Default                                  : Yes
Forced                                   : No



Source:
credit to original movie ripper Legend-Rg (Thanks)[/code]

[b]IMDB Info:[/b]

[code]As the Civil War continues to rage, America's president struggles with continuing carnage on the battlefield and as he fights with many inside his own cabinet on the decision to emancipate the slaves.

Director: Steven Spielberg
Writers: Tony Kushner (screenplay), Doris Kearns Goodwin (book) (in part)
Stars: Daniel Day-Lewis, Sally Field and David Strathairn 

Genres: Biography | Drama | History | War
 
http://www.imdb.com/title/tt0443272/

Screen Shot:
 
http://hostpicturefree.com/images/vlcsnaxtx.png 
http://hostpicturefree.com/images/vlcsnahmh.png 
http://hostpicturefree.com/images/vlcsnakkk.png 
http://hostpicturefree.com/images/vlcsnaheh.png 
http://hostpicturefree.com/images/vlcsnahuh.png 
http://hostpicturefree.com/images/vlcsnajkj.png